<svg width="578" height="980" viewBox="0 0 578 980" fill="none" xmlns="http://www.w3.org/2000/svg">
<mask id="path-1-outside-1_1_1669" maskUnits="userSpaceOnUse" x="-252.162" y="-444" width="830" height="1424" fill="black">
<rect fill="white" x="-252.162" y="-444" width="830" height="1424"/>
<path d="M186.537 -331.706H216.993V-443H193.179L157.053 -417.728L171.309 -395.372L186.537 -406.712V-331.706ZM233.952 -331.706H262.95V-371.558C262.95 -382.412 267.486 -387.11 273.966 -387.11C281.418 -387.11 283.524 -380.144 283.524 -371.558V-331.706H312.36V-371.558C312.36 -382.412 317.058 -387.11 322.89 -387.11C330.666 -387.11 332.448 -380.144 332.448 -371.558V-331.706H361.446V-378.2C361.446 -403.796 349.458 -412.706 333.096 -412.706C322.566 -412.706 313.494 -408.98 307.338 -401.528H307.014C302.154 -409.466 294.054 -412.706 284.334 -412.706C276.396 -412.706 268.944 -409.142 263.112 -402.338H262.95V-411.086H233.952V-331.706ZM375.069 -331.706H404.067V-371.558C404.067 -382.412 408.603 -387.11 415.083 -387.11C422.535 -387.11 424.641 -380.144 424.641 -371.558V-331.706H453.477V-371.558C453.477 -382.412 458.175 -387.11 464.007 -387.11C471.783 -387.11 473.565 -380.144 473.565 -371.558V-331.706H502.563V-378.2C502.563 -403.796 490.575 -412.706 474.213 -412.706C463.683 -412.706 454.611 -408.98 448.455 -401.528H448.131C443.271 -409.466 435.171 -412.706 425.451 -412.706C417.513 -412.706 410.061 -409.142 404.229 -402.338H404.067V-411.086H375.069V-331.706ZM542.755 -330.086C565.273 -330.086 576.289 -340.778 576.289 -356.33C576.289 -371.882 567.379 -377.066 549.397 -382.736C541.459 -385.328 539.515 -386.786 539.515 -388.406C539.515 -390.674 542.107 -391.646 544.537 -391.646C549.559 -391.646 556.201 -388.73 561.223 -383.384L574.669 -402.662C565.273 -409.304 556.525 -412.706 543.565 -412.706C527.041 -412.706 513.109 -403.472 513.109 -385.976C513.109 -370.91 524.935 -364.106 538.381 -360.218C548.101 -357.302 549.235 -356.006 549.235 -354.062C549.235 -351.956 547.291 -350.822 543.241 -350.822C537.247 -350.822 530.281 -353.738 523.477 -359.732L510.355 -341.912C519.427 -333.812 530.443 -330.086 542.755 -330.086Z"/>
<path d="M149.517 -212.706H179.973V-324H156.159L120.033 -298.728L134.289 -276.372L149.517 -287.712V-212.706ZM196.933 -212.706H225.931V-252.558C225.931 -263.412 230.467 -268.11 236.947 -268.11C244.399 -268.11 246.505 -261.144 246.505 -252.558V-212.706H275.341V-252.558C275.341 -263.412 280.039 -268.11 285.871 -268.11C293.647 -268.11 295.429 -261.144 295.429 -252.558V-212.706H324.427V-259.2C324.427 -284.796 312.439 -293.706 296.077 -293.706C285.547 -293.706 276.475 -289.98 270.319 -282.528H269.995C265.135 -290.466 257.035 -293.706 247.315 -293.706C239.377 -293.706 231.925 -290.142 226.093 -283.338H225.931V-292.086H196.933V-212.706ZM338.05 -212.706H367.048V-252.558C367.048 -263.412 371.584 -268.11 378.064 -268.11C385.516 -268.11 387.622 -261.144 387.622 -252.558V-212.706H416.458V-252.558C416.458 -263.412 421.156 -268.11 426.988 -268.11C434.764 -268.11 436.546 -261.144 436.546 -252.558V-212.706H465.544V-259.2C465.544 -284.796 453.556 -293.706 437.194 -293.706C426.664 -293.706 417.592 -289.98 411.436 -282.528H411.112C406.252 -290.466 398.152 -293.706 388.432 -293.706C380.494 -293.706 373.042 -290.142 367.21 -283.338H367.048V-292.086H338.05V-212.706ZM505.735 -211.086C528.253 -211.086 539.269 -221.778 539.269 -237.33C539.269 -252.882 530.359 -258.066 512.377 -263.736C504.439 -266.328 502.495 -267.786 502.495 -269.406C502.495 -271.674 505.087 -272.646 507.517 -272.646C512.539 -272.646 519.181 -269.73 524.203 -264.384L537.649 -283.662C528.253 -290.304 519.505 -293.706 506.545 -293.706C490.021 -293.706 476.089 -284.472 476.089 -266.976C476.089 -251.91 487.915 -245.106 501.361 -241.218C511.081 -238.302 512.215 -237.006 512.215 -235.062C512.215 -232.956 510.271 -231.822 506.221 -231.822C500.227 -231.822 493.261 -234.738 486.457 -240.732L473.335 -222.912C482.407 -214.812 493.423 -211.086 505.735 -211.086Z"/>
<path d="M112.498 -93.706H142.954V-205H119.14L83.0138 -179.728L97.2698 -157.372L112.498 -168.712V-93.706ZM159.913 -93.706H188.911V-133.558C188.911 -144.412 193.447 -149.11 199.927 -149.11C207.379 -149.11 209.485 -142.144 209.485 -133.558V-93.706H238.321V-133.558C238.321 -144.412 243.019 -149.11 248.851 -149.11C256.627 -149.11 258.409 -142.144 258.409 -133.558V-93.706H287.407V-140.2C287.407 -165.796 275.419 -174.706 259.057 -174.706C248.527 -174.706 239.455 -170.98 233.299 -163.528H232.975C228.115 -171.466 220.015 -174.706 210.295 -174.706C202.357 -174.706 194.905 -171.142 189.073 -164.338H188.911V-173.086H159.913V-93.706ZM301.03 -93.706H330.028V-133.558C330.028 -144.412 334.564 -149.11 341.044 -149.11C348.496 -149.11 350.602 -142.144 350.602 -133.558V-93.706H379.438V-133.558C379.438 -144.412 384.136 -149.11 389.968 -149.11C397.744 -149.11 399.526 -142.144 399.526 -133.558V-93.706H428.524V-140.2C428.524 -165.796 416.536 -174.706 400.174 -174.706C389.644 -174.706 380.572 -170.98 374.416 -163.528H374.092C369.232 -171.466 361.132 -174.706 351.412 -174.706C343.474 -174.706 336.022 -171.142 330.19 -164.338H330.028V-173.086H301.03V-93.706ZM468.716 -92.086C491.234 -92.086 502.25 -102.778 502.25 -118.33C502.25 -133.882 493.34 -139.066 475.358 -144.736C467.42 -147.328 465.476 -148.786 465.476 -150.406C465.476 -152.674 468.068 -153.646 470.498 -153.646C475.52 -153.646 482.162 -150.73 487.184 -145.384L500.63 -164.662C491.234 -171.304 482.486 -174.706 469.526 -174.706C453.002 -174.706 439.07 -165.472 439.07 -147.976C439.07 -132.91 450.896 -126.106 464.342 -122.218C474.062 -119.302 475.196 -118.006 475.196 -116.062C475.196 -113.956 473.252 -112.822 469.202 -112.822C463.208 -112.822 456.242 -115.738 449.438 -121.732L436.316 -103.912C445.388 -95.812 456.404 -92.086 468.716 -92.086Z"/>
<path d="M75.4783 25.294H105.934V-86H82.1203L45.9943 -60.728L60.2503 -38.372L75.4783 -49.712V25.294ZM122.894 25.294H151.892V-14.558C151.892 -25.412 156.428 -30.11 162.908 -30.11C170.36 -30.11 172.466 -23.144 172.466 -14.558V25.294H201.302V-14.558C201.302 -25.412 206 -30.11 211.832 -30.11C219.608 -30.11 221.39 -23.144 221.39 -14.558V25.294H250.388V-21.2C250.388 -46.796 238.4 -55.706 222.038 -55.706C211.508 -55.706 202.436 -51.98 196.28 -44.528H195.956C191.096 -52.466 182.996 -55.706 173.276 -55.706C165.338 -55.706 157.886 -52.142 152.054 -45.338H151.892V-54.086H122.894V25.294ZM264.011 25.294H293.009V-14.558C293.009 -25.412 297.545 -30.11 304.025 -30.11C311.477 -30.11 313.583 -23.144 313.583 -14.558V25.294H342.419V-14.558C342.419 -25.412 347.117 -30.11 352.949 -30.11C360.725 -30.11 362.507 -23.144 362.507 -14.558V25.294H391.505V-21.2C391.505 -46.796 379.517 -55.706 363.155 -55.706C352.625 -55.706 343.553 -51.98 337.397 -44.528H337.073C332.213 -52.466 324.113 -55.706 314.393 -55.706C306.455 -55.706 299.003 -52.142 293.171 -45.338H293.009V-54.086H264.011V25.294ZM431.696 26.914C454.214 26.914 465.23 16.222 465.23 0.670013C465.23 -14.882 456.32 -20.066 438.338 -25.736C430.4 -28.328 428.456 -29.786 428.456 -31.406C428.456 -33.674 431.048 -34.646 433.478 -34.646C438.5 -34.646 445.142 -31.73 450.164 -26.384L463.61 -45.662C454.214 -52.304 445.466 -55.706 432.506 -55.706C415.982 -55.706 402.05 -46.472 402.05 -28.976C402.05 -13.91 413.876 -7.10599 427.322 -3.21799C437.042 -0.301971 438.176 0.994019 438.176 2.93802C438.176 5.04401 436.232 6.17801 432.182 6.17801C426.188 6.17801 419.222 3.26199 412.418 -2.73199L399.296 15.088C408.368 23.188 419.384 26.914 431.696 26.914Z"/>
<path d="M38.4587 144.294H68.9147V33H45.1007L8.97473 58.272L23.2307 80.628L38.4587 69.288V144.294ZM85.8741 144.294H114.872V104.442C114.872 93.588 119.408 88.89 125.888 88.89C133.34 88.89 135.446 95.856 135.446 104.442V144.294H164.282V104.442C164.282 93.588 168.98 88.89 174.812 88.89C182.588 88.89 184.37 95.856 184.37 104.442V144.294H213.368V97.8C213.368 72.204 201.38 63.294 185.018 63.294C174.488 63.294 165.416 67.02 159.26 74.472H158.936C154.076 66.534 145.976 63.294 136.256 63.294C128.318 63.294 120.866 66.858 115.034 73.662H114.872V64.914H85.8741V144.294ZM226.991 144.294H255.989V104.442C255.989 93.588 260.525 88.89 267.005 88.89C274.457 88.89 276.563 95.856 276.563 104.442V144.294H305.399V104.442C305.399 93.588 310.097 88.89 315.929 88.89C323.705 88.89 325.487 95.856 325.487 104.442V144.294H354.485V97.8C354.485 72.204 342.497 63.294 326.135 63.294C315.605 63.294 306.533 67.02 300.377 74.472H300.053C295.193 66.534 287.093 63.294 277.373 63.294C269.435 63.294 261.983 66.858 256.151 73.662H255.989V64.914H226.991V144.294ZM394.676 145.914C417.194 145.914 428.211 135.222 428.211 119.67C428.211 104.118 419.3 98.934 401.318 93.264C393.38 90.672 391.436 89.214 391.436 87.594C391.436 85.326 394.029 84.354 396.458 84.354C401.48 84.354 408.122 87.27 413.144 92.616L426.591 73.338C417.195 66.696 408.447 63.294 395.487 63.294C378.963 63.294 365.03 72.528 365.03 90.024C365.03 105.09 376.857 111.894 390.302 115.782C400.022 118.698 401.156 119.994 401.156 121.938C401.156 124.044 399.212 125.178 395.162 125.178C389.168 125.178 382.203 122.262 375.398 116.268L362.276 134.088C371.349 142.188 382.364 145.914 394.676 145.914Z"/>
<path d="M1.43921 263.294H31.8952V152H8.08121L-28.0448 177.272L-13.7888 199.628L1.43921 188.288V263.294ZM48.8546 263.294H77.8526V223.442C77.8526 212.588 82.3886 207.89 88.8686 207.89C96.3206 207.89 98.4266 214.856 98.4266 223.442V263.294H127.263V223.442C127.263 212.588 131.961 207.89 137.793 207.89C145.569 207.89 147.351 214.856 147.351 223.442V263.294H176.349V216.8C176.349 191.204 164.361 182.294 147.999 182.294C137.469 182.294 128.397 186.02 122.241 193.472H121.917C117.057 185.534 108.957 182.294 99.2366 182.294C91.2986 182.294 83.8466 185.858 78.0146 192.662H77.8526V183.914H48.8546V263.294ZM189.972 263.294H218.97V223.442C218.97 212.588 223.506 207.89 229.986 207.89C237.438 207.89 239.544 214.856 239.544 223.442V263.294H268.38V223.442C268.38 212.588 273.078 207.89 278.91 207.89C286.686 207.89 288.468 214.856 288.468 223.442V263.294H317.466V216.8C317.466 191.204 305.478 182.294 289.116 182.294C278.586 182.294 269.514 186.02 263.358 193.472H263.034C258.174 185.534 250.074 182.294 240.354 182.294C232.416 182.294 224.964 185.858 219.132 192.662H218.97V183.914H189.972V263.294ZM357.657 264.914C380.175 264.914 391.191 254.222 391.191 238.67C391.191 223.118 382.281 217.934 364.299 212.264C356.361 209.672 354.417 208.214 354.417 206.594C354.417 204.326 357.009 203.354 359.439 203.354C364.461 203.354 371.103 206.27 376.125 211.616L389.571 192.338C380.175 185.696 371.427 182.294 358.467 182.294C341.943 182.294 328.011 191.528 328.011 209.024C328.011 224.09 339.837 230.894 353.283 234.782C363.003 237.698 364.137 238.994 364.137 240.938C364.137 243.044 362.193 244.178 358.143 244.178C352.149 244.178 345.183 241.262 338.379 235.268L325.257 253.088C334.329 261.188 345.345 264.914 357.657 264.914Z"/>
<path d="M-35.5803 382.294H-5.12433V271H-28.9383L-65.0643 296.272L-50.8083 318.628L-35.5803 307.288V382.294ZM11.8351 382.294H40.833V342.442C40.833 331.588 45.369 326.89 51.8491 326.89C59.3011 326.89 61.407 333.856 61.407 342.442V382.294H90.243V342.442C90.243 331.588 94.941 326.89 100.773 326.89C108.549 326.89 110.331 333.856 110.331 342.442V382.294H139.329V335.8C139.329 310.204 127.341 301.294 110.979 301.294C100.449 301.294 91.377 305.02 85.221 312.472H84.8971C80.0371 304.534 71.937 301.294 62.217 301.294C54.2791 301.294 46.8271 304.858 40.9951 311.662H40.833V302.914H11.8351V382.294ZM152.952 382.294H181.95V342.442C181.95 331.588 186.486 326.89 192.966 326.89C200.418 326.89 202.524 333.856 202.524 342.442V382.294H231.36V342.442C231.36 331.588 236.058 326.89 241.89 326.89C249.666 326.89 251.448 333.856 251.448 342.442V382.294H280.446V335.8C280.446 310.204 268.458 301.294 252.096 301.294C241.566 301.294 232.494 305.02 226.338 312.472H226.014C221.154 304.534 213.054 301.294 203.334 301.294C195.396 301.294 187.944 304.858 182.112 311.662H181.95V302.914H152.952V382.294ZM320.637 383.914C343.155 383.914 354.171 373.222 354.171 357.67C354.171 342.118 345.261 336.934 327.279 331.264C319.341 328.672 317.397 327.214 317.397 325.594C317.397 323.326 319.989 322.354 322.419 322.354C327.441 322.354 334.083 325.27 339.105 330.616L352.551 311.338C343.155 304.696 334.407 301.294 321.447 301.294C304.923 301.294 290.991 310.528 290.991 328.024C290.991 343.09 302.817 349.894 316.263 353.782C325.983 356.698 327.117 357.994 327.117 359.938C327.117 362.044 325.173 363.178 321.123 363.178C315.129 363.178 308.163 360.262 301.359 354.268L288.237 372.088C297.309 380.188 308.325 383.914 320.637 383.914Z"/>
<path d="M-72.5999 501.294H-42.1439V390H-65.9579L-102.084 415.272L-87.8279 437.628L-72.5999 426.288V501.294ZM-25.1845 501.294H3.81351V461.442C3.81351 450.588 8.34952 445.89 14.8295 445.89C22.2815 445.89 24.3875 452.856 24.3875 461.442V501.294H53.2235V461.442C53.2235 450.588 57.9215 445.89 63.7535 445.89C71.5295 445.89 73.3115 452.856 73.3115 461.442V501.294H102.31V454.8C102.31 429.204 90.3215 420.294 73.9595 420.294C63.4295 420.294 54.3575 424.02 48.2015 431.472H47.8775C43.0175 423.534 34.9175 420.294 25.1975 420.294C17.2595 420.294 9.80753 423.858 3.97551 430.662H3.81351V421.914H-25.1845V501.294ZM115.933 501.294H144.931V461.442C144.931 450.588 149.467 445.89 155.947 445.89C163.399 445.89 165.505 452.856 165.505 461.442V501.294H194.341V461.442C194.341 450.588 199.039 445.89 204.871 445.89C212.647 445.89 214.429 452.856 214.429 461.442V501.294H243.427V454.8C243.427 429.204 231.439 420.294 215.077 420.294C204.547 420.294 195.475 424.02 189.319 431.472H188.995C184.135 423.534 176.035 420.294 166.315 420.294C158.377 420.294 150.925 423.858 145.093 430.662H144.931V421.914H115.933V501.294ZM283.618 502.914C306.136 502.914 317.152 492.222 317.152 476.67C317.152 461.118 308.242 455.934 290.26 450.264C282.322 447.672 280.378 446.214 280.378 444.594C280.378 442.326 282.97 441.354 285.4 441.354C290.422 441.354 297.064 444.27 302.086 449.616L315.532 430.338C306.136 423.696 297.388 420.294 284.428 420.294C267.904 420.294 253.972 429.528 253.972 447.024C253.972 462.09 265.798 468.894 279.244 472.782C288.964 475.698 290.098 476.994 290.098 478.938C290.098 481.044 288.154 482.178 284.104 482.178C278.11 482.178 271.144 479.262 264.34 473.268L251.218 491.088C260.29 499.188 271.306 502.914 283.618 502.914Z"/>
<path d="M-109.619 620.294H-79.1634V509H-102.977L-139.103 534.272L-124.847 556.628L-109.619 545.288V620.294ZM-62.204 620.294H-33.206V580.442C-33.206 569.588 -28.67 564.89 -22.19 564.89C-14.738 564.89 -12.632 571.856 -12.632 580.442V620.294H16.204V580.442C16.204 569.588 20.902 564.89 26.734 564.89C34.51 564.89 36.292 571.856 36.292 580.442V620.294H65.29V573.8C65.29 548.204 53.302 539.294 36.94 539.294C26.41 539.294 17.338 543.02 11.182 550.472H10.858C5.99802 542.534 -2.10202 539.294 -11.822 539.294C-19.76 539.294 -27.212 542.858 -33.044 549.662H-33.206V540.914H-62.204V620.294ZM78.9132 620.294H107.911V580.442C107.911 569.588 112.447 564.89 118.927 564.89C126.379 564.89 128.485 571.856 128.485 580.442V620.294H157.321V580.442C157.321 569.588 162.019 564.89 167.851 564.89C175.627 564.89 177.409 571.856 177.409 580.442V620.294H206.407V573.8C206.407 548.204 194.419 539.294 178.057 539.294C167.527 539.294 158.455 543.02 152.299 550.472H151.975C147.115 542.534 139.015 539.294 129.295 539.294C121.357 539.294 113.905 542.858 108.073 549.662H107.911V540.914H78.9132V620.294ZM246.598 621.914C269.116 621.914 280.132 611.222 280.132 595.67C280.132 580.118 271.222 574.934 253.24 569.264C245.302 566.672 243.358 565.214 243.358 563.594C243.358 561.326 245.95 560.354 248.38 560.354C253.402 560.354 260.044 563.27 265.066 568.616L278.512 549.338C269.116 542.696 260.368 539.294 247.408 539.294C230.884 539.294 216.952 548.528 216.952 566.024C216.952 581.09 228.778 587.894 242.224 591.782C251.944 594.698 253.078 595.994 253.078 597.938C253.078 600.044 251.134 601.178 247.084 601.178C241.09 601.178 234.124 598.262 227.32 592.268L214.198 610.088C223.27 618.188 234.286 621.914 246.598 621.914Z"/>
<path d="M-146.639 739.294H-116.183V628H-139.997L-176.123 653.272L-161.867 675.628L-146.639 664.288V739.294ZM-99.2236 739.294H-70.2256V699.442C-70.2256 688.588 -65.6895 683.89 -59.2095 683.89C-51.7576 683.89 -49.6516 690.856 -49.6516 699.442V739.294H-20.8156V699.442C-20.8156 688.588 -16.1175 683.89 -10.2855 683.89C-2.50954 683.89 -0.727554 690.856 -0.727554 699.442V739.294H28.2704V692.8C28.2704 667.204 16.2825 658.294 -0.0795441 658.294C-10.6095 658.294 -19.6815 662.02 -25.8376 669.472H-26.1615C-31.0215 661.534 -39.1216 658.294 -48.8416 658.294C-56.7796 658.294 -64.2316 661.858 -70.0636 668.662H-70.2256V659.914H-99.2236V739.294ZM41.8936 739.294H70.8916V699.442C70.8916 688.588 75.4276 683.89 81.9077 683.89C89.3596 683.89 91.4656 690.856 91.4656 699.442V739.294H120.302V699.442C120.302 688.588 125 683.89 130.832 683.89C138.608 683.89 140.39 690.856 140.39 699.442V739.294H169.388V692.8C169.388 667.204 157.4 658.294 141.038 658.294C130.508 658.294 121.436 662.02 115.28 669.472H114.956C110.096 661.534 101.996 658.294 92.2756 658.294C84.3376 658.294 76.8857 661.858 71.0536 668.662H70.8916V659.914H41.8936V739.294ZM209.579 740.914C232.097 740.914 243.113 730.222 243.113 714.67C243.113 699.118 234.203 693.934 216.221 688.264C208.283 685.672 206.339 684.214 206.339 682.594C206.339 680.326 208.931 679.354 211.361 679.354C216.383 679.354 223.025 682.27 228.047 687.616L241.493 668.338C232.097 661.696 223.349 658.294 210.389 658.294C193.865 658.294 179.933 667.528 179.933 685.024C179.933 700.09 191.759 706.894 205.205 710.782C214.925 713.698 216.059 714.994 216.059 716.938C216.059 719.044 214.115 720.178 210.065 720.178C204.071 720.178 197.105 717.262 190.301 711.268L177.179 729.088C186.251 737.188 197.267 740.914 209.579 740.914Z"/>
<path d="M-183.658 858.294H-153.202V747H-177.016L-213.142 772.272L-198.886 794.628L-183.658 783.288V858.294ZM-136.243 858.294H-107.245V818.442C-107.245 807.588 -102.709 802.89 -96.2291 802.89C-88.7771 802.89 -86.6711 809.856 -86.6711 818.442V858.294H-57.8351V818.442C-57.8351 807.588 -53.1371 802.89 -47.3051 802.89C-39.5291 802.89 -37.7471 809.856 -37.7471 818.442V858.294H-8.74907V811.8C-8.74907 786.204 -20.7371 777.294 -37.0991 777.294C-47.6291 777.294 -56.7011 781.02 -62.8571 788.472H-63.1811C-68.0411 780.534 -76.1411 777.294 -85.8611 777.294C-93.7991 777.294 -101.251 780.858 -107.083 787.662H-107.245V778.914H-136.243V858.294ZM4.8741 858.294H33.8721V818.442C33.8721 807.588 38.4081 802.89 44.8881 802.89C52.3401 802.89 54.4461 809.856 54.4461 818.442V858.294H83.2821V818.442C83.2821 807.588 87.9801 802.89 93.8121 802.89C101.588 802.89 103.37 809.856 103.37 818.442V858.294H132.368V811.8C132.368 786.204 120.38 777.294 104.018 777.294C93.4881 777.294 84.4161 781.02 78.2601 788.472H77.9361C73.0761 780.534 64.9761 777.294 55.2561 777.294C47.3181 777.294 39.8661 780.858 34.0341 787.662H33.8721V778.914H4.8741V858.294ZM172.559 859.914C195.077 859.914 206.093 849.222 206.093 833.67C206.093 818.118 197.183 812.934 179.201 807.264C171.263 804.672 169.319 803.214 169.319 801.594C169.319 799.326 171.911 798.354 174.341 798.354C179.363 798.354 186.005 801.27 191.027 806.616L204.473 787.338C195.077 780.696 186.329 777.294 173.369 777.294C156.845 777.294 142.913 786.528 142.913 804.024C142.913 819.09 154.739 825.894 168.185 829.782C177.905 832.698 179.039 833.994 179.039 835.938C179.039 838.044 177.095 839.178 173.045 839.178C167.051 839.178 160.085 836.262 153.281 830.268L140.159 848.088C149.231 856.188 160.247 859.914 172.559 859.914Z"/>
<path d="M-220.678 977.294H-190.222V866H-214.036L-250.162 891.272L-235.906 913.628L-220.678 902.288V977.294ZM-173.263 977.294H-144.265V937.442C-144.265 926.588 -139.729 921.89 -133.249 921.89C-125.797 921.89 -123.691 928.856 -123.691 937.442V977.294H-94.8546V937.442C-94.8546 926.588 -90.1566 921.89 -84.3246 921.89C-76.5486 921.89 -74.7666 928.856 -74.7666 937.442V977.294H-45.7686V930.8C-45.7686 905.204 -57.7566 896.294 -74.1186 896.294C-84.6486 896.294 -93.7206 900.02 -99.8766 907.472H-100.201C-105.061 899.534 -113.161 896.294 -122.881 896.294C-130.819 896.294 -138.271 899.858 -144.103 906.662H-144.265V897.914H-173.263V977.294ZM-32.1454 977.294H-3.14743V937.442C-3.14743 926.588 1.3886 921.89 7.86859 921.89C15.3206 921.89 17.4266 928.856 17.4266 937.442V977.294H46.2626V937.442C46.2626 926.588 50.9606 921.89 56.7926 921.89C64.5686 921.89 66.3506 928.856 66.3506 937.442V977.294H95.3486V930.8C95.3486 905.204 83.3606 896.294 66.9986 896.294C56.4686 896.294 47.3966 900.02 41.2406 907.472H40.9166C36.0566 899.534 27.9566 896.294 18.2366 896.294C10.2986 896.294 2.84657 899.858 -2.98543 906.662H-3.14743V897.914H-32.1454V977.294ZM135.54 978.914C158.058 978.914 169.074 968.222 169.074 952.67C169.074 937.118 160.164 931.934 142.182 926.264C134.244 923.672 132.3 922.214 132.3 920.594C132.3 918.326 134.892 917.354 137.322 917.354C142.344 917.354 148.986 920.27 154.008 925.616L167.454 906.338C158.058 899.696 149.31 896.294 136.35 896.294C119.826 896.294 105.894 905.528 105.894 923.024C105.894 938.09 117.72 944.894 131.166 948.782C140.886 951.698 142.02 952.994 142.02 954.938C142.02 957.044 140.076 958.178 136.026 958.178C130.032 958.178 123.066 955.262 116.262 949.268L103.14 967.088C112.212 975.188 123.228 978.914 135.54 978.914Z"/>
</mask>
<path d="M186.537 -331.706H216.993V-443H193.179L157.053 -417.728L171.309 -395.372L186.537 -406.712V-331.706ZM233.952 -331.706H262.95V-371.558C262.95 -382.412 267.486 -387.11 273.966 -387.11C281.418 -387.11 283.524 -380.144 283.524 -371.558V-331.706H312.36V-371.558C312.36 -382.412 317.058 -387.11 322.89 -387.11C330.666 -387.11 332.448 -380.144 332.448 -371.558V-331.706H361.446V-378.2C361.446 -403.796 349.458 -412.706 333.096 -412.706C322.566 -412.706 313.494 -408.98 307.338 -401.528H307.014C302.154 -409.466 294.054 -412.706 284.334 -412.706C276.396 -412.706 268.944 -409.142 263.112 -402.338H262.95V-411.086H233.952V-331.706ZM375.069 -331.706H404.067V-371.558C404.067 -382.412 408.603 -387.11 415.083 -387.11C422.535 -387.11 424.641 -380.144 424.641 -371.558V-331.706H453.477V-371.558C453.477 -382.412 458.175 -387.11 464.007 -387.11C471.783 -387.11 473.565 -380.144 473.565 -371.558V-331.706H502.563V-378.2C502.563 -403.796 490.575 -412.706 474.213 -412.706C463.683 -412.706 454.611 -408.98 448.455 -401.528H448.131C443.271 -409.466 435.171 -412.706 425.451 -412.706C417.513 -412.706 410.061 -409.142 404.229 -402.338H404.067V-411.086H375.069V-331.706ZM542.755 -330.086C565.273 -330.086 576.289 -340.778 576.289 -356.33C576.289 -371.882 567.379 -377.066 549.397 -382.736C541.459 -385.328 539.515 -386.786 539.515 -388.406C539.515 -390.674 542.107 -391.646 544.537 -391.646C549.559 -391.646 556.201 -388.73 561.223 -383.384L574.669 -402.662C565.273 -409.304 556.525 -412.706 543.565 -412.706C527.041 -412.706 513.109 -403.472 513.109 -385.976C513.109 -370.91 524.935 -364.106 538.381 -360.218C548.101 -357.302 549.235 -356.006 549.235 -354.062C549.235 -351.956 547.291 -350.822 543.241 -350.822C537.247 -350.822 530.281 -353.738 523.477 -359.732L510.355 -341.912C519.427 -333.812 530.443 -330.086 542.755 -330.086Z" stroke="#E6E9EA" stroke-opacity="0.06" stroke-width="2" mask="url(#path-1-outside-1_1_1669)"/>
<path d="M149.517 -212.706H179.973V-324H156.159L120.033 -298.728L134.289 -276.372L149.517 -287.712V-212.706ZM196.933 -212.706H225.931V-252.558C225.931 -263.412 230.467 -268.11 236.947 -268.11C244.399 -268.11 246.505 -261.144 246.505 -252.558V-212.706H275.341V-252.558C275.341 -263.412 280.039 -268.11 285.871 -268.11C293.647 -268.11 295.429 -261.144 295.429 -252.558V-212.706H324.427V-259.2C324.427 -284.796 312.439 -293.706 296.077 -293.706C285.547 -293.706 276.475 -289.98 270.319 -282.528H269.995C265.135 -290.466 257.035 -293.706 247.315 -293.706C239.377 -293.706 231.925 -290.142 226.093 -283.338H225.931V-292.086H196.933V-212.706ZM338.05 -212.706H367.048V-252.558C367.048 -263.412 371.584 -268.11 378.064 -268.11C385.516 -268.11 387.622 -261.144 387.622 -252.558V-212.706H416.458V-252.558C416.458 -263.412 421.156 -268.11 426.988 -268.11C434.764 -268.11 436.546 -261.144 436.546 -252.558V-212.706H465.544V-259.2C465.544 -284.796 453.556 -293.706 437.194 -293.706C426.664 -293.706 417.592 -289.98 411.436 -282.528H411.112C406.252 -290.466 398.152 -293.706 388.432 -293.706C380.494 -293.706 373.042 -290.142 367.21 -283.338H367.048V-292.086H338.05V-212.706ZM505.735 -211.086C528.253 -211.086 539.269 -221.778 539.269 -237.33C539.269 -252.882 530.359 -258.066 512.377 -263.736C504.439 -266.328 502.495 -267.786 502.495 -269.406C502.495 -271.674 505.087 -272.646 507.517 -272.646C512.539 -272.646 519.181 -269.73 524.203 -264.384L537.649 -283.662C528.253 -290.304 519.505 -293.706 506.545 -293.706C490.021 -293.706 476.089 -284.472 476.089 -266.976C476.089 -251.91 487.915 -245.106 501.361 -241.218C511.081 -238.302 512.215 -237.006 512.215 -235.062C512.215 -232.956 510.271 -231.822 506.221 -231.822C500.227 -231.822 493.261 -234.738 486.457 -240.732L473.335 -222.912C482.407 -214.812 493.423 -211.086 505.735 -211.086Z" stroke="#E6E9EA" stroke-opacity="0.06" stroke-width="2" mask="url(#path-1-outside-1_1_1669)"/>
<path d="M112.498 -93.706H142.954V-205H119.14L83.0138 -179.728L97.2698 -157.372L112.498 -168.712V-93.706ZM159.913 -93.706H188.911V-133.558C188.911 -144.412 193.447 -149.11 199.927 -149.11C207.379 -149.11 209.485 -142.144 209.485 -133.558V-93.706H238.321V-133.558C238.321 -144.412 243.019 -149.11 248.851 -149.11C256.627 -149.11 258.409 -142.144 258.409 -133.558V-93.706H287.407V-140.2C287.407 -165.796 275.419 -174.706 259.057 -174.706C248.527 -174.706 239.455 -170.98 233.299 -163.528H232.975C228.115 -171.466 220.015 -174.706 210.295 -174.706C202.357 -174.706 194.905 -171.142 189.073 -164.338H188.911V-173.086H159.913V-93.706ZM301.03 -93.706H330.028V-133.558C330.028 -144.412 334.564 -149.11 341.044 -149.11C348.496 -149.11 350.602 -142.144 350.602 -133.558V-93.706H379.438V-133.558C379.438 -144.412 384.136 -149.11 389.968 -149.11C397.744 -149.11 399.526 -142.144 399.526 -133.558V-93.706H428.524V-140.2C428.524 -165.796 416.536 -174.706 400.174 -174.706C389.644 -174.706 380.572 -170.98 374.416 -163.528H374.092C369.232 -171.466 361.132 -174.706 351.412 -174.706C343.474 -174.706 336.022 -171.142 330.19 -164.338H330.028V-173.086H301.03V-93.706ZM468.716 -92.086C491.234 -92.086 502.25 -102.778 502.25 -118.33C502.25 -133.882 493.34 -139.066 475.358 -144.736C467.42 -147.328 465.476 -148.786 465.476 -150.406C465.476 -152.674 468.068 -153.646 470.498 -153.646C475.52 -153.646 482.162 -150.73 487.184 -145.384L500.63 -164.662C491.234 -171.304 482.486 -174.706 469.526 -174.706C453.002 -174.706 439.07 -165.472 439.07 -147.976C439.07 -132.91 450.896 -126.106 464.342 -122.218C474.062 -119.302 475.196 -118.006 475.196 -116.062C475.196 -113.956 473.252 -112.822 469.202 -112.822C463.208 -112.822 456.242 -115.738 449.438 -121.732L436.316 -103.912C445.388 -95.812 456.404 -92.086 468.716 -92.086Z" stroke="#E6E9EA" stroke-opacity="0.06" stroke-width="2" mask="url(#path-1-outside-1_1_1669)"/>
<path d="M75.4783 25.294H105.934V-86H82.1203L45.9943 -60.728L60.2503 -38.372L75.4783 -49.712V25.294ZM122.894 25.294H151.892V-14.558C151.892 -25.412 156.428 -30.11 162.908 -30.11C170.36 -30.11 172.466 -23.144 172.466 -14.558V25.294H201.302V-14.558C201.302 -25.412 206 -30.11 211.832 -30.11C219.608 -30.11 221.39 -23.144 221.39 -14.558V25.294H250.388V-21.2C250.388 -46.796 238.4 -55.706 222.038 -55.706C211.508 -55.706 202.436 -51.98 196.28 -44.528H195.956C191.096 -52.466 182.996 -55.706 173.276 -55.706C165.338 -55.706 157.886 -52.142 152.054 -45.338H151.892V-54.086H122.894V25.294ZM264.011 25.294H293.009V-14.558C293.009 -25.412 297.545 -30.11 304.025 -30.11C311.477 -30.11 313.583 -23.144 313.583 -14.558V25.294H342.419V-14.558C342.419 -25.412 347.117 -30.11 352.949 -30.11C360.725 -30.11 362.507 -23.144 362.507 -14.558V25.294H391.505V-21.2C391.505 -46.796 379.517 -55.706 363.155 -55.706C352.625 -55.706 343.553 -51.98 337.397 -44.528H337.073C332.213 -52.466 324.113 -55.706 314.393 -55.706C306.455 -55.706 299.003 -52.142 293.171 -45.338H293.009V-54.086H264.011V25.294ZM431.696 26.914C454.214 26.914 465.23 16.222 465.23 0.670013C465.23 -14.882 456.32 -20.066 438.338 -25.736C430.4 -28.328 428.456 -29.786 428.456 -31.406C428.456 -33.674 431.048 -34.646 433.478 -34.646C438.5 -34.646 445.142 -31.73 450.164 -26.384L463.61 -45.662C454.214 -52.304 445.466 -55.706 432.506 -55.706C415.982 -55.706 402.05 -46.472 402.05 -28.976C402.05 -13.91 413.876 -7.10599 427.322 -3.21799C437.042 -0.301971 438.176 0.994019 438.176 2.93802C438.176 5.04401 436.232 6.17801 432.182 6.17801C426.188 6.17801 419.222 3.26199 412.418 -2.73199L399.296 15.088C408.368 23.188 419.384 26.914 431.696 26.914Z" stroke="#E6E9EA" stroke-opacity="0.06" stroke-width="2" mask="url(#path-1-outside-1_1_1669)"/>
<path d="M38.4587 144.294H68.9147V33H45.1007L8.97473 58.272L23.2307 80.628L38.4587 69.288V144.294ZM85.8741 144.294H114.872V104.442C114.872 93.588 119.408 88.89 125.888 88.89C133.34 88.89 135.446 95.856 135.446 104.442V144.294H164.282V104.442C164.282 93.588 168.98 88.89 174.812 88.89C182.588 88.89 184.37 95.856 184.37 104.442V144.294H213.368V97.8C213.368 72.204 201.38 63.294 185.018 63.294C174.488 63.294 165.416 67.02 159.26 74.472H158.936C154.076 66.534 145.976 63.294 136.256 63.294C128.318 63.294 120.866 66.858 115.034 73.662H114.872V64.914H85.8741V144.294ZM226.991 144.294H255.989V104.442C255.989 93.588 260.525 88.89 267.005 88.89C274.457 88.89 276.563 95.856 276.563 104.442V144.294H305.399V104.442C305.399 93.588 310.097 88.89 315.929 88.89C323.705 88.89 325.487 95.856 325.487 104.442V144.294H354.485V97.8C354.485 72.204 342.497 63.294 326.135 63.294C315.605 63.294 306.533 67.02 300.377 74.472H300.053C295.193 66.534 287.093 63.294 277.373 63.294C269.435 63.294 261.983 66.858 256.151 73.662H255.989V64.914H226.991V144.294ZM394.676 145.914C417.194 145.914 428.211 135.222 428.211 119.67C428.211 104.118 419.3 98.934 401.318 93.264C393.38 90.672 391.436 89.214 391.436 87.594C391.436 85.326 394.029 84.354 396.458 84.354C401.48 84.354 408.122 87.27 413.144 92.616L426.591 73.338C417.195 66.696 408.447 63.294 395.487 63.294C378.963 63.294 365.03 72.528 365.03 90.024C365.03 105.09 376.857 111.894 390.302 115.782C400.022 118.698 401.156 119.994 401.156 121.938C401.156 124.044 399.212 125.178 395.162 125.178C389.168 125.178 382.203 122.262 375.398 116.268L362.276 134.088C371.349 142.188 382.364 145.914 394.676 145.914Z" stroke="#E6E9EA" stroke-opacity="0.06" stroke-width="2" mask="url(#path-1-outside-1_1_1669)"/>
<path d="M1.43921 263.294H31.8952V152H8.08121L-28.0448 177.272L-13.7888 199.628L1.43921 188.288V263.294ZM48.8546 263.294H77.8526V223.442C77.8526 212.588 82.3886 207.89 88.8686 207.89C96.3206 207.89 98.4266 214.856 98.4266 223.442V263.294H127.263V223.442C127.263 212.588 131.961 207.89 137.793 207.89C145.569 207.89 147.351 214.856 147.351 223.442V263.294H176.349V216.8C176.349 191.204 164.361 182.294 147.999 182.294C137.469 182.294 128.397 186.02 122.241 193.472H121.917C117.057 185.534 108.957 182.294 99.2366 182.294C91.2986 182.294 83.8466 185.858 78.0146 192.662H77.8526V183.914H48.8546V263.294ZM189.972 263.294H218.97V223.442C218.97 212.588 223.506 207.89 229.986 207.89C237.438 207.89 239.544 214.856 239.544 223.442V263.294H268.38V223.442C268.38 212.588 273.078 207.89 278.91 207.89C286.686 207.89 288.468 214.856 288.468 223.442V263.294H317.466V216.8C317.466 191.204 305.478 182.294 289.116 182.294C278.586 182.294 269.514 186.02 263.358 193.472H263.034C258.174 185.534 250.074 182.294 240.354 182.294C232.416 182.294 224.964 185.858 219.132 192.662H218.97V183.914H189.972V263.294ZM357.657 264.914C380.175 264.914 391.191 254.222 391.191 238.67C391.191 223.118 382.281 217.934 364.299 212.264C356.361 209.672 354.417 208.214 354.417 206.594C354.417 204.326 357.009 203.354 359.439 203.354C364.461 203.354 371.103 206.27 376.125 211.616L389.571 192.338C380.175 185.696 371.427 182.294 358.467 182.294C341.943 182.294 328.011 191.528 328.011 209.024C328.011 224.09 339.837 230.894 353.283 234.782C363.003 237.698 364.137 238.994 364.137 240.938C364.137 243.044 362.193 244.178 358.143 244.178C352.149 244.178 345.183 241.262 338.379 235.268L325.257 253.088C334.329 261.188 345.345 264.914 357.657 264.914Z" stroke="#E6E9EA" stroke-opacity="0.06" stroke-width="2" mask="url(#path-1-outside-1_1_1669)"/>
<path d="M-35.5803 382.294H-5.12433V271H-28.9383L-65.0643 296.272L-50.8083 318.628L-35.5803 307.288V382.294ZM11.8351 382.294H40.833V342.442C40.833 331.588 45.369 326.89 51.8491 326.89C59.3011 326.89 61.407 333.856 61.407 342.442V382.294H90.243V342.442C90.243 331.588 94.941 326.89 100.773 326.89C108.549 326.89 110.331 333.856 110.331 342.442V382.294H139.329V335.8C139.329 310.204 127.341 301.294 110.979 301.294C100.449 301.294 91.377 305.02 85.221 312.472H84.8971C80.0371 304.534 71.937 301.294 62.217 301.294C54.2791 301.294 46.8271 304.858 40.9951 311.662H40.833V302.914H11.8351V382.294ZM152.952 382.294H181.95V342.442C181.95 331.588 186.486 326.89 192.966 326.89C200.418 326.89 202.524 333.856 202.524 342.442V382.294H231.36V342.442C231.36 331.588 236.058 326.89 241.89 326.89C249.666 326.89 251.448 333.856 251.448 342.442V382.294H280.446V335.8C280.446 310.204 268.458 301.294 252.096 301.294C241.566 301.294 232.494 305.02 226.338 312.472H226.014C221.154 304.534 213.054 301.294 203.334 301.294C195.396 301.294 187.944 304.858 182.112 311.662H181.95V302.914H152.952V382.294ZM320.637 383.914C343.155 383.914 354.171 373.222 354.171 357.67C354.171 342.118 345.261 336.934 327.279 331.264C319.341 328.672 317.397 327.214 317.397 325.594C317.397 323.326 319.989 322.354 322.419 322.354C327.441 322.354 334.083 325.27 339.105 330.616L352.551 311.338C343.155 304.696 334.407 301.294 321.447 301.294C304.923 301.294 290.991 310.528 290.991 328.024C290.991 343.09 302.817 349.894 316.263 353.782C325.983 356.698 327.117 357.994 327.117 359.938C327.117 362.044 325.173 363.178 321.123 363.178C315.129 363.178 308.163 360.262 301.359 354.268L288.237 372.088C297.309 380.188 308.325 383.914 320.637 383.914Z" stroke="#E6E9EA" stroke-opacity="0.06" stroke-width="2" mask="url(#path-1-outside-1_1_1669)"/>
<path d="M-72.5999 501.294H-42.1439V390H-65.9579L-102.084 415.272L-87.8279 437.628L-72.5999 426.288V501.294ZM-25.1845 501.294H3.81351V461.442C3.81351 450.588 8.34952 445.89 14.8295 445.89C22.2815 445.89 24.3875 452.856 24.3875 461.442V501.294H53.2235V461.442C53.2235 450.588 57.9215 445.89 63.7535 445.89C71.5295 445.89 73.3115 452.856 73.3115 461.442V501.294H102.31V454.8C102.31 429.204 90.3215 420.294 73.9595 420.294C63.4295 420.294 54.3575 424.02 48.2015 431.472H47.8775C43.0175 423.534 34.9175 420.294 25.1975 420.294C17.2595 420.294 9.80753 423.858 3.97551 430.662H3.81351V421.914H-25.1845V501.294ZM115.933 501.294H144.931V461.442C144.931 450.588 149.467 445.89 155.947 445.89C163.399 445.89 165.505 452.856 165.505 461.442V501.294H194.341V461.442C194.341 450.588 199.039 445.89 204.871 445.89C212.647 445.89 214.429 452.856 214.429 461.442V501.294H243.427V454.8C243.427 429.204 231.439 420.294 215.077 420.294C204.547 420.294 195.475 424.02 189.319 431.472H188.995C184.135 423.534 176.035 420.294 166.315 420.294C158.377 420.294 150.925 423.858 145.093 430.662H144.931V421.914H115.933V501.294ZM283.618 502.914C306.136 502.914 317.152 492.222 317.152 476.67C317.152 461.118 308.242 455.934 290.26 450.264C282.322 447.672 280.378 446.214 280.378 444.594C280.378 442.326 282.97 441.354 285.4 441.354C290.422 441.354 297.064 444.27 302.086 449.616L315.532 430.338C306.136 423.696 297.388 420.294 284.428 420.294C267.904 420.294 253.972 429.528 253.972 447.024C253.972 462.09 265.798 468.894 279.244 472.782C288.964 475.698 290.098 476.994 290.098 478.938C290.098 481.044 288.154 482.178 284.104 482.178C278.11 482.178 271.144 479.262 264.34 473.268L251.218 491.088C260.29 499.188 271.306 502.914 283.618 502.914Z" stroke="#E6E9EA" stroke-opacity="0.06" stroke-width="2" mask="url(#path-1-outside-1_1_1669)"/>
<path d="M-109.619 620.294H-79.1634V509H-102.977L-139.103 534.272L-124.847 556.628L-109.619 545.288V620.294ZM-62.204 620.294H-33.206V580.442C-33.206 569.588 -28.67 564.89 -22.19 564.89C-14.738 564.89 -12.632 571.856 -12.632 580.442V620.294H16.204V580.442C16.204 569.588 20.902 564.89 26.734 564.89C34.51 564.89 36.292 571.856 36.292 580.442V620.294H65.29V573.8C65.29 548.204 53.302 539.294 36.94 539.294C26.41 539.294 17.338 543.02 11.182 550.472H10.858C5.99802 542.534 -2.10202 539.294 -11.822 539.294C-19.76 539.294 -27.212 542.858 -33.044 549.662H-33.206V540.914H-62.204V620.294ZM78.9132 620.294H107.911V580.442C107.911 569.588 112.447 564.89 118.927 564.89C126.379 564.89 128.485 571.856 128.485 580.442V620.294H157.321V580.442C157.321 569.588 162.019 564.89 167.851 564.89C175.627 564.89 177.409 571.856 177.409 580.442V620.294H206.407V573.8C206.407 548.204 194.419 539.294 178.057 539.294C167.527 539.294 158.455 543.02 152.299 550.472H151.975C147.115 542.534 139.015 539.294 129.295 539.294C121.357 539.294 113.905 542.858 108.073 549.662H107.911V540.914H78.9132V620.294ZM246.598 621.914C269.116 621.914 280.132 611.222 280.132 595.67C280.132 580.118 271.222 574.934 253.24 569.264C245.302 566.672 243.358 565.214 243.358 563.594C243.358 561.326 245.95 560.354 248.38 560.354C253.402 560.354 260.044 563.27 265.066 568.616L278.512 549.338C269.116 542.696 260.368 539.294 247.408 539.294C230.884 539.294 216.952 548.528 216.952 566.024C216.952 581.09 228.778 587.894 242.224 591.782C251.944 594.698 253.078 595.994 253.078 597.938C253.078 600.044 251.134 601.178 247.084 601.178C241.09 601.178 234.124 598.262 227.32 592.268L214.198 610.088C223.27 618.188 234.286 621.914 246.598 621.914Z" stroke="#E6E9EA" stroke-opacity="0.06" stroke-width="2" mask="url(#path-1-outside-1_1_1669)"/>
<path d="M-146.639 739.294H-116.183V628H-139.997L-176.123 653.272L-161.867 675.628L-146.639 664.288V739.294ZM-99.2236 739.294H-70.2256V699.442C-70.2256 688.588 -65.6895 683.89 -59.2095 683.89C-51.7576 683.89 -49.6516 690.856 -49.6516 699.442V739.294H-20.8156V699.442C-20.8156 688.588 -16.1175 683.89 -10.2855 683.89C-2.50954 683.89 -0.727554 690.856 -0.727554 699.442V739.294H28.2704V692.8C28.2704 667.204 16.2825 658.294 -0.0795441 658.294C-10.6095 658.294 -19.6815 662.02 -25.8376 669.472H-26.1615C-31.0215 661.534 -39.1216 658.294 -48.8416 658.294C-56.7796 658.294 -64.2316 661.858 -70.0636 668.662H-70.2256V659.914H-99.2236V739.294ZM41.8936 739.294H70.8916V699.442C70.8916 688.588 75.4276 683.89 81.9077 683.89C89.3596 683.89 91.4656 690.856 91.4656 699.442V739.294H120.302V699.442C120.302 688.588 125 683.89 130.832 683.89C138.608 683.89 140.39 690.856 140.39 699.442V739.294H169.388V692.8C169.388 667.204 157.4 658.294 141.038 658.294C130.508 658.294 121.436 662.02 115.28 669.472H114.956C110.096 661.534 101.996 658.294 92.2756 658.294C84.3376 658.294 76.8857 661.858 71.0536 668.662H70.8916V659.914H41.8936V739.294ZM209.579 740.914C232.097 740.914 243.113 730.222 243.113 714.67C243.113 699.118 234.203 693.934 216.221 688.264C208.283 685.672 206.339 684.214 206.339 682.594C206.339 680.326 208.931 679.354 211.361 679.354C216.383 679.354 223.025 682.27 228.047 687.616L241.493 668.338C232.097 661.696 223.349 658.294 210.389 658.294C193.865 658.294 179.933 667.528 179.933 685.024C179.933 700.09 191.759 706.894 205.205 710.782C214.925 713.698 216.059 714.994 216.059 716.938C216.059 719.044 214.115 720.178 210.065 720.178C204.071 720.178 197.105 717.262 190.301 711.268L177.179 729.088C186.251 737.188 197.267 740.914 209.579 740.914Z" stroke="#E6E9EA" stroke-opacity="0.06" stroke-width="2" mask="url(#path-1-outside-1_1_1669)"/>
<path d="M-183.658 858.294H-153.202V747H-177.016L-213.142 772.272L-198.886 794.628L-183.658 783.288V858.294ZM-136.243 858.294H-107.245V818.442C-107.245 807.588 -102.709 802.89 -96.2291 802.89C-88.7771 802.89 -86.6711 809.856 -86.6711 818.442V858.294H-57.8351V818.442C-57.8351 807.588 -53.1371 802.89 -47.3051 802.89C-39.5291 802.89 -37.7471 809.856 -37.7471 818.442V858.294H-8.74907V811.8C-8.74907 786.204 -20.7371 777.294 -37.0991 777.294C-47.6291 777.294 -56.7011 781.02 -62.8571 788.472H-63.1811C-68.0411 780.534 -76.1411 777.294 -85.8611 777.294C-93.7991 777.294 -101.251 780.858 -107.083 787.662H-107.245V778.914H-136.243V858.294ZM4.8741 858.294H33.8721V818.442C33.8721 807.588 38.4081 802.89 44.8881 802.89C52.3401 802.89 54.4461 809.856 54.4461 818.442V858.294H83.2821V818.442C83.2821 807.588 87.9801 802.89 93.8121 802.89C101.588 802.89 103.37 809.856 103.37 818.442V858.294H132.368V811.8C132.368 786.204 120.38 777.294 104.018 777.294C93.4881 777.294 84.4161 781.02 78.2601 788.472H77.9361C73.0761 780.534 64.9761 777.294 55.2561 777.294C47.3181 777.294 39.8661 780.858 34.0341 787.662H33.8721V778.914H4.8741V858.294ZM172.559 859.914C195.077 859.914 206.093 849.222 206.093 833.67C206.093 818.118 197.183 812.934 179.201 807.264C171.263 804.672 169.319 803.214 169.319 801.594C169.319 799.326 171.911 798.354 174.341 798.354C179.363 798.354 186.005 801.27 191.027 806.616L204.473 787.338C195.077 780.696 186.329 777.294 173.369 777.294C156.845 777.294 142.913 786.528 142.913 804.024C142.913 819.09 154.739 825.894 168.185 829.782C177.905 832.698 179.039 833.994 179.039 835.938C179.039 838.044 177.095 839.178 173.045 839.178C167.051 839.178 160.085 836.262 153.281 830.268L140.159 848.088C149.231 856.188 160.247 859.914 172.559 859.914Z" stroke="#E6E9EA" stroke-opacity="0.06" stroke-width="2" mask="url(#path-1-outside-1_1_1669)"/>
<path d="M-220.678 977.294H-190.222V866H-214.036L-250.162 891.272L-235.906 913.628L-220.678 902.288V977.294ZM-173.263 977.294H-144.265V937.442C-144.265 926.588 -139.729 921.89 -133.249 921.89C-125.797 921.89 -123.691 928.856 -123.691 937.442V977.294H-94.8546V937.442C-94.8546 926.588 -90.1566 921.89 -84.3246 921.89C-76.5486 921.89 -74.7666 928.856 -74.7666 937.442V977.294H-45.7686V930.8C-45.7686 905.204 -57.7566 896.294 -74.1186 896.294C-84.6486 896.294 -93.7206 900.02 -99.8766 907.472H-100.201C-105.061 899.534 -113.161 896.294 -122.881 896.294C-130.819 896.294 -138.271 899.858 -144.103 906.662H-144.265V897.914H-173.263V977.294ZM-32.1454 977.294H-3.14743V937.442C-3.14743 926.588 1.3886 921.89 7.86859 921.89C15.3206 921.89 17.4266 928.856 17.4266 937.442V977.294H46.2626V937.442C46.2626 926.588 50.9606 921.89 56.7926 921.89C64.5686 921.89 66.3506 928.856 66.3506 937.442V977.294H95.3486V930.8C95.3486 905.204 83.3606 896.294 66.9986 896.294C56.4686 896.294 47.3966 900.02 41.2406 907.472H40.9166C36.0566 899.534 27.9566 896.294 18.2366 896.294C10.2986 896.294 2.84657 899.858 -2.98543 906.662H-3.14743V897.914H-32.1454V977.294ZM135.54 978.914C158.058 978.914 169.074 968.222 169.074 952.67C169.074 937.118 160.164 931.934 142.182 926.264C134.244 923.672 132.3 922.214 132.3 920.594C132.3 918.326 134.892 917.354 137.322 917.354C142.344 917.354 148.986 920.27 154.008 925.616L167.454 906.338C158.058 899.696 149.31 896.294 136.35 896.294C119.826 896.294 105.894 905.528 105.894 923.024C105.894 938.09 117.72 944.894 131.166 948.782C140.886 951.698 142.02 952.994 142.02 954.938C142.02 957.044 140.076 958.178 136.026 958.178C130.032 958.178 123.066 955.262 116.262 949.268L103.14 967.088C112.212 975.188 123.228 978.914 135.54 978.914Z" stroke="#E6E9EA" stroke-opacity="0.06" stroke-width="2" mask="url(#path-1-outside-1_1_1669)"/>
</svg>
